<svg xmlns="http://www.w3.org/2000/svg" viewBox="0 0 128 128" shape-rendering="geometricPrecision" text-rendering="geometricPrecision" image-rendering="optimizeQuality" fill-rule="evenodd" clip-rule="evenodd"><defs><style><![CDATA[
    .str0 {stroke:#4D4D4D;stroke-width:0.528944}
    .fil10 {fill:none}
    .fil0 {fill:#FEFEFE}
    .fil8 {fill:black}
    .fil11 {fill:#4D4D4D}
    .fil12 {fill:gray}
    .fil3 {fill:#C1272D}
    .fil2 {fill:#ED1C24}
    .fil1 {fill:#F2F2F2}
    .fil6 {fill:#F7BD89}
    .fil7 {fill:#FBD5A0}
    .fil4 {fill:#FF931E}
    .fil5 {fill:#FFB81E}
    .fil9 {fill:white}
   ]]></style></defs><g id="Layer_x0020_1"><path class="fil0" d="M0 0h128v128H0z"/><g id="_2292354624672"><circle class="fil1" cx="64" cy="64" r="64"/><path class="fil2" d="M83 102c-12 5-26 5-39 0-1-1-2-2-2-3v-3c0-1 1-2 2-2 13 5 27 5 39 0 1 0 2 1 2 2v3c0 1-1 2-2 3z"/><path class="fil3" d="M83 98c-12 7-26 7-39 0-1 0-2-2-2-4v-4c0-2 1-3 2-2 13 6 27 6 39 0 1-1 2 0 2 2v4c0 2-1 4-2 4z"/><circle class="fil3" cx="64" cy="103" r="2"/><circle class="fil4" cx="64" cy="103" r="2"/><circle class="fil5" cx="64" cy="104" r="1"/><path class="fil6" d="M103 70c1 16-17 31-39 31-23 0-40-15-39-31s19-29 39-29 37 13 39 29z"/><path class="fil7" d="M64 39c-21 0-41 15-37 37 0 3 2 8 8 13 1 1 4 2 6 1 4-2-3-9 4-16 4-3 10-5 19-5 8 0 14 2 18 5 8 7 1 14 5 16 1 1 4 0 6-1 6-5 7-10 8-13 4-22-16-37-37-37z"/><path class="fil8" d="M82 77c-3-5-10-9-18-9s-15 4-18 9c-4 4-3 6-3 10 0 16 6 11 9 13 4 2 8 1 12 1s8 1 11-1c4-2 9 3 9-13 0-4 2-6-2-10z"/><circle class="fil6" cx="38" cy="70" r="6"/><circle class="fil6" cx="39" cy="67" r="2"/><circle class="fil8" cx="38" cy="69" r="6"/><circle class="fil9" cx="40" cy="66" r="2"/><circle class="fil6" cx="90" cy="70" r="6"/><circle class="fil6" cx="92" cy="67" r="2"/><circle class="fil8" cx="89" cy="69" r="6"/><circle class="fil9" cx="91" cy="66" r="2"/><path class="fil6" d="M50 45s-22 3-23 30h-1l-1-7 1-14 9-7 9-3 6 1zm28 0s22 3 22 30h2v-7l-1-14-9-7-8-3-6 1z"/><path class="fil10 str0" d="M64 78v14"/><path class="fil8" d="M50 45s-26 3-23 29c0 1-6-6-10-8s-4-9-4-9 0-11 17-15c16-3 20 3 20 3zm28 0s25 3 23 29c0 1 5-6 9-8 5-2 4-9 4-9s0-11-16-15c-17-3-20 3-20 3z"/><path class="fil6" d="M64 63c-8 0-16 8-15 7 4-1 5-4 15-4 9 0 11 3 14 4 2 1-6-7-14-7z"/><path class="fil6" d="M64 60c-6 0-12 6-11 5 2-1 5-3 11-3 5 0 8 2 11 3 1 1-5-5-11-5zm0-20c-7 0-14 4-12 4 2-1 6-3 12-3s9 2 12 3c1 0-5-4-12-4z"/><path class="fil11" d="M64 91c-1 0-3 1-5 2s-4 1-3 1c2 0 5-1 8-1s6 1 8 1c1 0-1 0-3-1s-4-2-5-2zm6-17c1 1-2 4-6 4s-7-3-6-4c1-2 3-3 6-3s5 1 6 3z"/><path class="fil12" d="M65 73c1 0 0 1-1 1s-2-1-2-1c1-1 1-1 2-1s1 0 1 1z"/><circle class="fil4" cx="64" cy="109" r="5"/><circle class="fil5" cx="64" cy="109" r="4"/><path class="fil4" d="M65 108v2h-2v1h-1v-3h3zm-1 1v-1h-1v2h1v-1z"/></g><path id="скачанные_x0020_файлы.svg" class="fil3" d="M118 111v1h-1c-1 0-2 0-2-1-1 0 0 0 0 0h3zm8 13v1h-6c-1 0-1 1-1 1h-1c0-1 0-1-1-1 0 0 0 1-1 0 0 0-1 0-2 1-1 0-2-1-2-1-1 1-2 1-2 1-1-1-1-1 0-1 0-1 1-2 2-1h5c1 0 1-1 2-1 1 1 1 0 2 0 0 1 1 1 1 0 1 0 2 1 2 0 0 0 0-1 1-2 0-1 0-3-1-4v-12c0-1 1-1 1-2-1-1-1-1-1-2v-4c1-1 1-1 0-1s-2-1-3 0v1h2s1 0 0 0v7c0 1 1 2 1 3l-1 1v14c-2 1-4 1-6 1h-2c-1 0-1-1-2-1 0 0-1 0-2 1h-1c-1-1-1-1-2-1v1h-1c0-1-1-1-1-1v1c-3-1-6 0-9 0v-2c0-3-1-5-1-8 0-1 0-2 1-3V97h24v-1h-11c-1 0-2 1-3 0H96v2c0 1-1 2-1 3v2h1v8c0 2-1 3 0 6v5s-1 1 0 2h8s0-1 1 0h3-1v2s-1 0-1-1c0 0-1 0-1 1l-1-1h-2c0 1-1 1-1 1s-1-1-1 0h-3s0-1 0 0h-2l-1-1v-10c1-1 0-1 0-1V96v1s0-2 1-2c1-1 2-1 4-1h24l1 1h1v1s1 0 1 1v2s-1 0 0 1v6c0 1-1 2-1 3s0 1 1 1v5c0 1-1 2 0 2v7zm-7-18c0-1 0-3-1-4 0-1 0-1-1-1s-1 0 0 1v3c0 1 1 2 0 1-2-1-3-3-4-4 0-1-1-3-1-4h-3s2 3 2 4c1 1 1 2 2 3 0 1 2 2 0 2-1 0-2 0-3-1h-2c-2-1-5 0-6 1s-2 2-2 3l-1 2c-1 0 0-1-1 0s0 2 1 3c0 1 1 2 1 4 0 1 1 1 2 1s3 0 5-1c0 0-3-1 2 1h4c1 0 1-2 1-2 0-1 1-2 2-2 0-1 0 0 1 0 2 1 3-2 2-3v-4c1-1 0-2 0-3zm-10 19h-1c0-1 0-1 1-1v1s0 1 0 0z"/></g></svg>